<svg width="94" height="60" viewBox="0 0 94 60" fill="none" xmlns="http://www.w3.org/2000/svg">
<path d="M83.8478 20.5466V25.7101H53.4069V60.0008H48.2434V7.33004L30.3705 25.2071L26.7202 28.8573L9.32129 11.4626V4.1579L26.7161 21.5527L48.2434 0.029549V0.0253906H53.4069V20.5466H83.8478Z" fill="white"/>
<path d="M44.0857 17.3708V24.6589L26.7075 42.037L23.0572 38.3826L5.16772 20.4973V59.939H0V13.2217H5.16772L5.18435 13.2051L5.20098 13.2217L24.055 32.0758L26.7075 34.7324L44.0857 17.3542V17.3708Z" fill="white"/>
<path d="M87.9965 29.8711H57.5557V35.0388H87.9965V29.8711Z" fill="white"/>
<path d="M93.1684 0H88.0049V59.9713H93.1684V0Z" fill="white"/>
</svg>
