<?xml version="1.0" encoding="utf-8"?>
<!-- Generator: Adobe Illustrator 23.0.1, SVG Export Plug-In . SVG Version: 6.00 Build 0)  -->
<svg version="1.1" id="Layer_1" xmlns="http://www.w3.org/2000/svg" xmlns:xlink="http://www.w3.org/1999/xlink" x="0px" y="0px"
	 viewBox="0 0 297 192" style="enable-background:new 0 0 297 192;" xml:space="preserve">
<style type="text/css">
	.st0{fill:#F4F4F4;}
</style>
<path class="st0" d="M267.3,65.5V82h-97v109.3h-16.5V23.4l-57,57L85.2,92L29.7,36.5V13.3l55.5,55.5l68.6-68.6v0h16.5v65.4H267.3z"/>
<path class="st0" d="M140.5,55.4v23.2L85.1,134l-11.6-11.6l-57-57v125.7H0V42.1h16.5l0.1-0.1l0.1,0.1l60.1,60.1l8.5,8.5L140.5,55.4
	L140.5,55.4z"/>
<path class="st0" d="M280.5,95.2h-97v16.5h97V95.2z"/>
<path class="st0" d="M297,0h-16.5v191.2H297V0z"/>
</svg>
