<svg width="297" height="192" viewBox="0 0 297 192" fill="none" xmlns="http://www.w3.org/2000/svg">
<path d="M267.286 65.4965V81.9567H170.248V191.268H153.788V23.3651L96.8129 80.3531L85.1767 91.9892L29.7129 36.5386V13.2531L85.1635 68.7037L153.788 0.0928457V0.0795898H170.248V65.4965H267.286Z" fill="#0064FA"/>
<path d="M140.535 55.3711V78.6036L85.1373 134.001L73.5012 122.352L16.4735 65.3373V191.069H0V42.1446H16.4735L16.5265 42.0916L16.5795 42.1446L76.6819 102.247L85.1373 110.716L140.535 55.3181V55.3711Z" fill="#0064FA"/>
<path d="M280.514 95.2229H183.476V111.696H280.514V95.2229Z" fill="#0064FA"/>
<path d="M297 0H280.54V191.175H297V0Z" fill="#0064FA"/>
</svg>
